<mxfile host="65bd71144e">
    <diagram id="tJECyUSPBc_Pgc-EoDl0" name="Page-1">
        <mxGraphModel dx="642" dy="393" grid="1" gridSize="10" guides="1" tooltips="1" connect="1" arrows="1" fold="1" page="1" pageScale="1" pageWidth="827" pageHeight="1169" math="0" shadow="0">
            <root>
                <mxCell id="0"/>
                <mxCell id="1" parent="0"/>
                <mxCell id="2" value="mysql" style="rounded=1;whiteSpace=wrap;html=1;" vertex="1" parent="1">
                    <mxGeometry x="80" y="260" width="120" height="30" as="geometry"/>
                </mxCell>
                <mxCell id="3" value="backend" style="rounded=1;whiteSpace=wrap;html=1;" vertex="1" parent="1">
                    <mxGeometry x="80" y="70" width="120" height="30" as="geometry"/>
                </mxCell>
                <mxCell id="4" value="frontend" style="rounded=1;whiteSpace=wrap;html=1;" vertex="1" parent="1">
                    <mxGeometry x="80" y="110" width="120" height="30" as="geometry"/>
                </mxCell>
                <mxCell id="5" value="medusa" style="rounded=1;whiteSpace=wrap;html=1;" vertex="1" parent="1">
                    <mxGeometry x="80" y="180" width="120" height="30" as="geometry"/>
                </mxCell>
                <mxCell id="6" value="strapi" style="rounded=1;whiteSpace=wrap;html=1;" vertex="1" parent="1">
                    <mxGeometry x="80" y="220" width="120" height="30" as="geometry"/>
                </mxCell>
                <mxCell id="7" value="keycloak" style="rounded=1;whiteSpace=wrap;html=1;" vertex="1" parent="1">
                    <mxGeometry x="80" y="300" width="120" height="30" as="geometry"/>
                </mxCell>
                <mxCell id="9" value="not available ind dev mode" style="swimlane;whiteSpace=wrap;html=1;" vertex="1" parent="1">
                    <mxGeometry x="40" y="40" width="200" height="110" as="geometry"/>
                </mxCell>
                <mxCell id="10" value="taon ports service" style="ellipse;whiteSpace=wrap;html=1;" vertex="1" parent="1">
                    <mxGeometry x="410" y="40" width="120" height="80" as="geometry"/>
                </mxCell>
            </root>
        </mxGraphModel>
    </diagram>
</mxfile>
